<svg width="24" height="24" viewBox="0 0 24 24" fill="none" xmlns="http://www.w3.org/2000/svg">
<g clip-path="url(#clip0_1734_26271)">
<path d="M10.5391 19.4258C10.5391 20.2508 11.2141 20.9258 12.0391 20.9258C12.8641 20.9258 13.5391 20.2508 13.5391 19.4258C13.5391 18.6008 12.8641 17.9258 12.0391 17.9258C11.2141 17.9258 10.5391 18.6008 10.5391 19.4258ZM10.5391 4.42578C10.5391 5.25078 11.2141 5.92578 12.0391 5.92578C12.8641 5.92578 13.5391 5.25078 13.5391 4.42578C13.5391 3.60078 12.8641 2.92578 12.0391 2.92578C11.2141 2.92578 10.5391 3.60078 10.5391 4.42578ZM10.5391 11.9258C10.5391 12.7508 11.2141 13.4258 12.0391 13.4258C12.8641 13.4258 13.5391 12.7508 13.5391 11.9258C13.5391 11.1008 12.8641 10.4258 12.0391 10.4258C11.2141 10.4258 10.5391 11.1008 10.5391 11.9258Z" fill="#71757B"/>
</g>
<defs>
<clipPath id="clip0_1734_26271">
<rect width="24" height="24" fill="white" transform="translate(1.04908e-06 24) rotate(-90)"/>
</clipPath>
</defs>
</svg>
