<svg width="24" height="24" viewBox="0 0 24 24" fill="none" xmlns="http://www.w3.org/2000/svg">
<path d="M7.15625 11.7037C7.15625 11.9674 7.25419 12.1934 7.46512 12.3892L13.3262 18.1297C13.4919 18.2955 13.7028 18.3859 13.9515 18.3859C14.4487 18.3859 14.8479 17.9941 14.8479 17.4894C14.8479 17.2408 14.7425 17.0223 14.5767 16.8491L9.29576 11.7037L14.5767 6.55831C14.7425 6.38504 14.8479 6.15904 14.8479 5.91797C14.8479 5.41323 14.4487 5.02148 13.9515 5.02148C13.7028 5.02148 13.4919 5.11189 13.3262 5.27762L7.46512 11.0106C7.25419 11.214 7.15625 11.44 7.15625 11.7037Z" fill="#1C1C1E"/>
</svg>
