<svg width="16" height="18" viewBox="0 0 16 18" fill="none" xmlns="http://www.w3.org/2000/svg">
<path d="M4.54381 17.5162H11.4671C12.6272 17.5162 13.373 16.8156 13.4333 15.6554L13.9381 4.8072H14.7667C15.1509 4.8072 15.4448 4.50586 15.4448 4.12919C15.4448 3.75251 15.1434 3.46624 14.7667 3.46624H11.4219V2.33622C11.4219 1.17606 10.6836 0.498047 9.4255 0.498047H6.56278C5.30469 0.498047 4.56641 1.17606 4.56641 2.33622V3.46624H1.23661C0.859933 3.46624 0.558594 3.76004 0.558594 4.12919C0.558594 4.51339 0.859933 4.8072 1.23661 4.8072H2.06529L2.57003 15.6554C2.6303 16.8231 3.36858 17.5162 4.54381 17.5162ZM5.97517 2.40402C5.97517 2.01981 6.24637 1.77121 6.66071 1.77121H9.32757C9.74191 1.77121 10.0131 2.01981 10.0131 2.40402V3.46624H5.97517V2.40402ZM4.69448 16.1677C4.28013 16.1677 3.97879 15.8588 3.95619 15.4143L3.45145 4.8072H12.5293L12.0396 15.4143C12.0246 15.8664 11.7307 16.1677 11.3013 16.1677H4.69448ZM5.7793 14.9548C6.10324 14.9548 6.30664 14.7514 6.29911 14.4501L6.0731 6.57003C6.06557 6.26869 5.85463 6.07282 5.54576 6.07282C5.22935 6.07282 5.02595 6.27623 5.03348 6.57757L5.25949 14.4576C5.26702 14.7589 5.47796 14.9548 5.7793 14.9548ZM8.00167 14.9548C8.31808 14.9548 8.53655 14.7589 8.53655 14.4576V6.57757C8.53655 6.27623 8.31808 6.07282 8.00167 6.07282C7.68527 6.07282 7.47433 6.27623 7.47433 6.57757V14.4576C7.47433 14.7589 7.68527 14.9548 8.00167 14.9548ZM10.2241 14.9623C10.5254 14.9623 10.7363 14.7589 10.7439 14.4576L10.9699 6.57757C10.9774 6.27623 10.774 6.08036 10.4576 6.08036C10.1487 6.08036 9.93778 6.27623 9.93025 6.57757L9.70424 14.4576C9.69671 14.7514 9.90011 14.9623 10.2241 14.9623Z" fill="#3D8AFF"/>
</svg>
